<svg xmlns="http://www.w3.org/2000/svg" width="97" height="97" viewBox="0 0 97 97">
  <defs>
    <style>
      .cls-1 {
        fill: #45b713;
        fill-rule: evenodd;
      }
    </style>
  </defs>
  <path id="Forma_1" data-name="Forma 1" class="cls-1" d="M399.5,291A48.5,48.5,0,1,0,448,339.5,48.557,48.557,0,0,0,399.5,291Zm0,86.683A38.181,38.181,0,1,1,437.682,339.5,38.225,38.225,0,0,1,399.5,377.681ZM424.777,338h-21.8V311.8a3.994,3.994,0,1,0-7.987,0V342a3.994,3.994,0,0,0,3.994,3.993h25.789A3.994,3.994,0,1,0,424.777,338Z" transform="translate(-351 -291)"/>
</svg>
