<svg xmlns="http://www.w3.org/2000/svg" width="98" height="92" viewBox="0 0 98 92">
  <defs>
    <style>
      .cls-1 {
        fill: #45b713;
        fill-rule: evenodd;
      }
    </style>
  </defs>
  <path id="Forma_1" data-name="Forma 1" class="cls-1" d="M448.408,348.884l-17.319,32.751a6.851,6.851,0,0,1-5.105,3.351L356.531,385a5.526,5.526,0,0,1-5.53-5.526l0.011-53.89a5.527,5.527,0,0,1,5.523-5.524l5.078,0v4.708h-3.4a2.508,2.508,0,0,0-2.509,2.507l0,50.518a2.508,2.508,0,0,0,2.509,2.507H361.7l16.414-33.18c0.928-1.853,2.68-3.35,4.532-3.35h40.2l0.013-13.353a5.144,5.144,0,0,1,4.7,5.1v8.249H445.99C448.167,343.787,450,345.938,448.408,348.884Zm-83.593,14.708c-0.15-16.514,0-66.061,0-66.061A4.537,4.537,0,0,1,369.349,293h36.309a2.075,2.075,0,0,1,1.528.671l11.738,12.744a2.078,2.078,0,0,1,.55,1.406v33.014h-3.808V310.672a0.947,0.947,0,0,0-.947-0.946h-8.985a1.906,1.906,0,0,1-1.906-1.9V297.751a0.946,0.946,0,0,0-.946-0.945h-33.53a0.727,0.727,0,0,0-.727.725v61.908l-2.914,5.891S364.83,365.265,364.815,363.592Zm42.826-57.67H413.3l-5.656-6.143v6.143Zm2.062,7.68H374.612a2.342,2.342,0,1,0,0,4.683H409.7A2.342,2.342,0,1,0,409.7,313.6Zm2.345,15.976a2.345,2.345,0,0,0-2.345-2.339H374.612a2.34,2.34,0,1,0,0,4.679H409.7A2.345,2.345,0,0,0,412.048,329.578Zm-39.779,13.728a2.342,2.342,0,0,0,2.342,2.339h0.841a7.024,7.024,0,0,1,5.153-4.68h-5.994A2.344,2.344,0,0,0,372.269,343.306Z" transform="translate(-351 -293)"/>
</svg>
